<svg width="24" height="24" viewBox="0 0 24 24" xmlns="http://www.w3.org/2000/svg">
<g clip-path="url(#clip0_407_937)">
<path d="M12.1907 25.904V18.6989H17.408V25.904C17.408 26.6965 17.995 27.345 18.7124 27.345H22.6254C23.3428 27.345 23.9297 26.6965 23.9297 25.904V15.8169H26.1471C26.7471 15.8169 27.034 14.9955 26.5775 14.5632L15.6733 3.71243C15.1776 3.22248 14.4211 3.22248 13.9254 3.71243L3.02118 14.5632C2.57771 14.9955 2.85162 15.8169 3.45161 15.8169H5.66899V25.904C5.66899 26.6965 6.25594 27.345 6.97332 27.345H10.8863C11.6037 27.345 12.1907 26.6965 12.1907 25.904Z" fill="#4318FF"/>
</g>
<defs>
<clipPath id="clip0_407_937">
<rect width="24" height="24" fill="white"/>
</clipPath>
</defs>
</svg>
